<svg width="22" height="14" viewBox="0 0 22 14" fill="none" xmlns="http://www.w3.org/2000/svg">
<path d="M11.0035 13.9018C17.5078 13.9018 21.9995 8.64529 21.9995 7.00316C21.9995 5.35294 17.4997 0.104492 11.0035 0.104492C4.58788 0.104492 -0.000488281 5.35294 -0.000488281 7.00316C-0.000488281 8.64529 4.57983 13.9018 11.0035 13.9018ZM11.0035 12.6299C5.69875 12.6299 1.40822 8.13814 1.40822 7.00316C1.40822 6.04523 5.69875 1.37636 11.0035 1.37636C16.2842 1.37636 20.5909 6.04523 20.5909 7.00316C20.5909 8.13814 16.2842 12.6299 11.0035 12.6299ZM11.0035 11.511C13.5071 11.511 15.5195 9.45832 15.5195 7.00316C15.5195 4.48357 13.5071 2.49528 11.0035 2.49528C8.484 2.49528 6.46348 4.48357 6.47153 7.00316C6.48763 9.45832 8.484 11.511 11.0035 11.511ZM11.0035 8.50042C10.1664 8.50042 9.49019 7.82422 9.49019 7.00316C9.49019 6.17402 10.1664 5.50589 11.0035 5.50589C11.8327 5.50589 12.5088 6.17402 12.5088 7.00316C12.5088 7.82422 11.8327 8.50042 11.0035 8.50042Z" fill="#3C3C43" fill-opacity="0.3"/>
</svg>
