<svg width="22" height="16" viewBox="0 0 22 16" fill="none" xmlns="http://www.w3.org/2000/svg">
<path d="M11.004 14.9038C12.5013 14.9038 13.8698 14.6382 15.1175 14.2116L14.063 13.157C13.105 13.4549 12.0908 13.6319 11.004 13.6319C5.69924 13.6319 1.40871 9.14021 1.40871 8.00516C1.40871 7.44168 2.89792 5.56608 5.2726 4.14127L4.27443 3.1431C1.59385 4.80136 0 7.03114 0 8.00516C0 9.64729 4.58032 14.9038 11.004 14.9038ZM11.004 1.10651C9.6034 1.10651 8.33151 1.348 7.14816 1.74244L8.21075 2.79696C9.09625 2.53132 10.0059 2.37837 11.004 2.37837C16.3008 2.37837 20.5913 7.04724 20.5913 8.00516C20.5913 8.65718 19.1826 10.412 16.9528 11.7805L17.9429 12.7706C20.4867 11.1205 22 8.95502 22 8.00516C22 6.35496 17.5083 1.10651 11.004 1.10651ZM11.004 12.513C11.7124 12.513 12.3805 12.3359 12.9762 12.0461L6.93893 6.00882C6.64106 6.60451 6.47202 7.28068 6.47202 8.00516C6.48006 10.4603 8.48449 12.513 11.004 12.513ZM15.1335 9.76805C15.3831 9.22876 15.52 8.62503 15.52 8.00516C15.52 5.48559 13.5075 3.49729 11.004 3.49729C10.3681 3.49729 9.77245 3.63414 9.23308 3.86758L15.1335 9.76805ZM17.2668 14.9762C17.5083 15.2258 17.8947 15.2419 18.1442 14.9762C18.4098 14.7106 18.3857 14.3484 18.1442 14.0988L4.68497 0.647673C4.44347 0.406179 4.04904 0.406179 3.79949 0.647673C3.56605 0.881116 3.56605 1.29165 3.79949 1.5251L17.2668 14.9762Z" fill="#3C3C43" fill-opacity="0.3"/>
</svg>
