<svg width="22" height="18" viewBox="0 0 22 18" fill="none" xmlns="http://www.w3.org/2000/svg">
<path d="M3.54891 17.2038H18.8614C20.5733 17.2038 21.5625 16.2148 21.5625 14.2555V3.75551C21.5625 1.80578 20.5638 0.81665 18.5761 0.81665H3.26358C1.55163 0.81665 0.5625 1.79627 0.5625 3.75551V14.2555C0.5625 16.2243 1.56114 17.2038 3.54891 17.2038ZM3.49185 15.7487C2.54076 15.7487 2.01766 15.2447 2.01766 14.2555V3.75551C2.01766 2.77589 2.54076 2.27182 3.49185 2.27182H18.6331C19.5652 2.27182 20.1073 2.77589 20.1073 3.76502V14.2651C20.1073 15.2447 19.5652 15.7487 18.6331 15.7487H3.49185ZM11.0815 11.5449C11.7472 11.5449 12.394 11.2691 13.0598 10.6129L20.7826 3.02317L19.7935 2.02453L12.2323 9.49053C11.8234 9.8995 11.4525 10.0802 11.0815 10.0802C10.7011 10.0802 10.3302 9.89 9.93073 9.49053L2.33152 1.98648L1.33288 2.98513L9.10323 10.6129C9.76906 11.2691 10.4062 11.5449 11.0815 11.5449ZM19.6983 15.958L20.6875 14.9593L14.5339 8.88187L13.5448 9.87101L19.6983 15.958ZM1.46603 14.9688L2.45516 15.9675L8.61821 9.87101L7.61956 8.88187L1.46603 14.9688Z" fill="inheritColor" />
</svg>
