<svg width="14" height="21" viewBox="0 0 14 21" fill="none" xmlns="http://www.w3.org/2000/svg">
<path d="M2.46512 20.4119H11.656C13.1325 20.4119 13.916 19.6084 13.916 18.0213V11.1005C13.916 9.52347 13.1325 8.71993 11.656 8.71993H2.46512C0.98856 8.71993 0.205078 9.52347 0.205078 11.1005V18.0213C0.205078 19.6084 0.98856 20.4119 2.46512 20.4119ZM2.51534 18.8951C2.08343 18.8951 1.83231 18.6239 1.83231 18.1318V10.99C1.83231 10.4979 2.08343 10.2367 2.51534 10.2367H11.6058C12.0477 10.2367 12.2888 10.4979 12.2888 10.99V18.1318C12.2888 18.6239 12.0477 18.8951 11.6058 18.8951H2.51534ZM1.96289 9.49338H3.55999V6.10833C3.55999 3.56703 5.17718 2.2311 7.05553 2.2311C8.93388 2.2311 10.5712 3.56703 10.5712 6.10833V9.49338H12.1582V6.31926C12.1582 2.54248 9.68722 0.714355 7.05553 0.714355C4.43387 0.714355 1.96289 2.54248 1.96289 6.31926V9.49338Z" fill="inheritColor"/>
</svg>
